<?xml version="1.0" encoding="iso-8859-1"?>
<!-- Generator: Adobe Illustrator 21.0.0, SVG Export Plug-In . SVG Version: 6.00 Build 0)  -->
<svg version="1.1" id="Capa_1" xmlns="http://www.w3.org/2000/svg" xmlns:xlink="http://www.w3.org/1999/xlink" x="0px" y="0px"
	 viewBox="0 0 512 512" style="enable-background:new 0 0 512 512;" xml:space="preserve">
<g>
	<g>
		<path d="M480.452,12.024H31.548C14.152,12.024,0,26.177,0,43.572v352.71c0,17.396,14.152,31.548,31.548,31.548h80.161
			c4.142,0,7.5-3.358,7.5-7.5c0-4.142-3.358-7.5-7.5-7.5H31.548c-9.125,0-16.548-7.423-16.548-16.548V107.186h482v289.097
			c0,9.125-7.423,16.548-16.548,16.548h-80.161c-4.142,0-7.5,3.358-7.5,7.5c0,4.142,3.358,7.5,7.5,7.5h80.161
			c17.396,0,31.548-14.153,31.548-31.548V43.572C512,26.177,497.848,12.024,480.452,12.024z M496.999,92.185H15V43.572
			c0-9.125,7.423-16.548,16.548-16.548h448.903c9.125,0,16.548,7.423,16.548,16.548V92.185z"/>
	</g>
</g>
<g>
	<g>
		<path d="M39.645,52.104h-0.08c-4.142,0-7.46,3.358-7.46,7.5c0,4.143,3.398,7.5,7.54,7.5c4.142,0,7.5-3.357,7.5-7.5
			C47.145,55.463,43.787,52.104,39.645,52.104z"/>
	</g>
</g>
<g>
	<g>
		<path d="M87.661,52.104h-0.08c-4.142,0-7.46,3.358-7.46,7.5c0,4.143,3.398,7.5,7.54,7.5c4.142,0,7.5-3.357,7.5-7.5
			C95.161,55.463,91.803,52.104,87.661,52.104z"/>
	</g>
</g>
<g>
	<g>
		<path d="M63.613,52.104h-0.08c-4.142,0-7.46,3.358-7.46,7.5c0,4.143,3.398,7.5,7.54,7.5c4.142,0,7.5-3.357,7.5-7.5
			C71.113,55.463,67.755,52.104,63.613,52.104z"/>
	</g>
</g>
<g>
	<g>
		<path d="M472.436,52.104h-352.71c-4.142,0-7.5,3.358-7.5,7.5c0,4.143,3.358,7.5,7.5,7.5h352.71c4.142,0,7.5-3.357,7.5-7.5
			C479.936,55.463,476.578,52.104,472.436,52.104z"/>
	</g>
</g>
<g>
	<g>
		<path d="M351.677,277.464v-41.505c0-52.756-42.92-95.677-95.677-95.677s-95.677,42.921-95.677,95.677v41.505
			c-13.786,3.375-24.048,15.829-24.048,30.64v72.146c0,66.017,53.708,119.726,119.726,119.726s119.726-53.708,119.726-119.726
			v-72.146C375.726,293.293,365.463,280.84,351.677,277.464z M175.323,235.96c0-44.486,36.192-80.678,80.677-80.678
			s80.677,36.191,80.677,80.677v40.597h-17.064V235.96c0-35.077-28.537-63.613-63.613-63.613c-35.076,0-63.613,28.537-63.613,63.613
			v40.597h-17.064V235.96z M256,484.976c-57.747,0-104.726-46.98-104.726-104.726v-72.146c0-9.125,7.423-16.548,16.548-16.548
			h96.193c4.142,0,7.5-3.358,7.5-7.5c0-4.143-3.358-7.5-7.5-7.5h-56.629V235.96c0-26.806,21.808-48.613,48.613-48.613
			s48.613,21.808,48.613,48.613v40.597h-8.531c-4.142,0-7.5,3.357-7.5,7.5c0,4.142,3.358,7.5,7.5,7.5h48.096
			c9.125,0,16.548,7.423,16.548,16.548v72.145h0.001C360.726,437.996,313.747,484.976,256,484.976z"/>
	</g>
</g>
<g>
	<g>
		<path d="M256,340.686c-17.396,0-31.548,14.152-31.548,31.548c0,14.812,10.262,27.265,24.048,30.64v25.473
			c0,4.142,3.358,7.5,7.5,7.5c4.142,0,7.5-3.358,7.5-7.5v-25.473c13.786-3.375,24.048-15.829,24.048-30.64
			C287.548,354.838,273.396,340.686,256,340.686z M256,388.782c-9.125,0-16.548-7.424-16.548-16.548
			c0-9.124,7.423-16.548,16.548-16.548s16.548,7.424,16.548,16.548C272.548,381.358,265.125,388.782,256,388.782z"/>
	</g>
</g>
<g>
</g>
<g>
</g>
<g>
</g>
<g>
</g>
<g>
</g>
<g>
</g>
<g>
</g>
<g>
</g>
<g>
</g>
<g>
</g>
<g>
</g>
<g>
</g>
<g>
</g>
<g>
</g>
<g>
</g>
</svg>
