<svg xmlns="http://www.w3.org/2000/svg" style="display: none;"><symbol id="instagram" viewBox="0 0 511 511.9"><title>instagram</title><path d="m510.949219 150.5c-1.199219-27.199219-5.597657-45.898438-11.898438-62.101562-6.5-17.199219-16.5-32.597657-29.601562-45.398438-12.800781-13-28.300781-23.101562-45.300781-29.5-16.296876-6.300781-34.898438-10.699219-62.097657-11.898438-27.402343-1.300781-36.101562-1.601562-105.601562-1.601562s-78.199219.300781-105.5 1.5c-27.199219 1.199219-45.898438 5.601562-62.097657 11.898438-17.203124 6.5-32.601562 16.5-45.402343 29.601562-13 12.800781-23.097657 28.300781-29.5 45.300781-6.300781 16.300781-10.699219 34.898438-11.898438 62.097657-1.300781 27.402343-1.601562 36.101562-1.601562 105.601562s.300781 78.199219 1.5 105.5c1.199219 27.199219 5.601562 45.898438 11.902343 62.101562 6.5 17.199219 16.597657 32.597657 29.597657 45.398438 12.800781 13 28.300781 23.101562 45.300781 29.5 16.300781 6.300781 34.898438 10.699219 62.101562 11.898438 27.296876 1.203124 36 1.5 105.5 1.5s78.199219-.296876 105.5-1.5c27.199219-1.199219 45.898438-5.597657 62.097657-11.898438 34.402343-13.300781 61.601562-40.5 74.902343-74.898438 6.296876-16.300781 10.699219-34.902343 11.898438-62.101562 1.199219-27.300781 1.5-36 1.5-105.5s-.101562-78.199219-1.300781-105.5zm-46.097657 209c-1.101562 25-5.300781 38.5-8.800781 47.5-8.601562 22.300781-26.300781 40-48.601562 48.601562-9 3.5-22.597657 7.699219-47.5 8.796876-27 1.203124-35.097657 1.5-103.398438 1.5s-76.5-.296876-103.402343-1.5c-25-1.097657-38.5-5.296876-47.5-8.796876-11.097657-4.101562-21.199219-10.601562-29.398438-19.101562-8.5-8.300781-15-18.300781-19.101562-29.398438-3.5-9-7.699219-22.601562-8.796876-47.5-1.203124-27-1.5-35.101562-1.5-103.402343s.296876-76.5 1.5-103.398438c1.097657-25 5.296876-38.5 8.796876-47.5 4.101562-11.101562 10.601562-21.199219 19.203124-29.402343 8.296876-8.5 18.296876-15 29.398438-19.097657 9-3.5 22.601562-7.699219 47.5-8.800781 27-1.199219 35.101562-1.5 103.398438-1.5 68.402343 0 76.5.300781 103.402343 1.5 25 1.101562 38.5 5.300781 47.5 8.800781 11.097657 4.097657 21.199219 10.597657 29.398438 19.097657 8.5 8.300781 15 18.300781 19.101562 29.402343 3.5 9 7.699219 22.597657 8.800781 47.5 1.199219 27 1.5 35.097657 1.5 103.398438s-.300781 76.300781-1.5 103.300781zm0 0"/><path d="m256.449219 124.5c-72.597657 0-131.5 58.898438-131.5 131.5s58.902343 131.5 131.5 131.5c72.601562 0 131.5-58.898438 131.5-131.5s-58.898438-131.5-131.5-131.5zm0 216.800781c-47.097657 0-85.300781-38.199219-85.300781-85.300781s38.203124-85.300781 85.300781-85.300781c47.101562 0 85.300781 38.199219 85.300781 85.300781s-38.199219 85.300781-85.300781 85.300781zm0 0"/><path d="m423.851562 119.300781c0 16.953125-13.746093 30.699219-30.703124 30.699219-16.953126 0-30.699219-13.746094-30.699219-30.699219 0-16.957031 13.746093-30.699219 30.699219-30.699219 16.957031 0 30.703124 13.742188 30.703124 30.699219zm0 0"/></symbol><symbol id="bullhorn" viewBox="0 0 64 64"><title>bullhorn</title><path d="m37 54h-2v-9.8a1 1 0 0 0 -2 0v9.8h-26v-20h8.32a1 1 0 0 0 0-2h-9.32a1 1 0 0 0 -1 1v21h-2a1 1 0 0 0 -1 1v2a5 5 0 0 0 5 5h26a5 5 0 0 0 5-5v-2a1 1 0 0 0 -1-1zm-1 3a3 3 0 0 1 -3 3h-2v-1a1 1 0 0 0 -2 0v1h-18v-1a1 1 0 0 0 -2 0v1h-2a3 3 0 0 1 -3-3v-1h32z"/><path d="m54 8h2a1 1 0 0 0 0-2h-2a3 3 0 0 0 -3 3v1h-1a1 1 0 0 0 0 2h1v3a1 1 0 0 0 2 0v-3h1a1 1 0 0 0 0-2h-1v-1a1 1 0 0 1 1-1z"/><path d="m59 2h-12a3 3 0 0 0 -3 3v2a1 1 0 0 0 2 0v-2a1 1 0 0 1 1-1h12a1 1 0 0 1 1 1v12a1 1 0 0 1 -1 1h-12a1 1 0 0 1 -1-1v-6a1 1 0 0 0 -2 0v6a3 3 0 0 0 3 3h12a3 3 0 0 0 3-3v-12a3 3 0 0 0 -3-3z"/><path d="m49 42a4 4 0 1 0 4-4 4 4 0 0 0 -4 4zm6 0a2 2 0 1 1 -2-2 2 2 0 0 1 2 2z"/><path d="m59 33h-12a3 3 0 0 0 -3 3v12a3 3 0 0 0 3 3h12a3 3 0 0 0 3-3v-2a1 1 0 0 0 -2 0v2a1 1 0 0 1 -1 1h-12a1 1 0 0 1 -1-1v-12a1 1 0 0 1 1-1h12a1 1 0 0 1 1 1v6a1 1 0 0 0 2 0v-6a3 3 0 0 0 -3-3z"/><path d="m24.47 13.85a1 1 0 0 0 .53.15 1 1 0 0 0 .45-.11l6-3a1 1 0 0 0 0-1.78l-6-3a1 1 0 0 0 -1.45.89v6a1 1 0 0 0 .47.85zm1.53-5.23 2.76 1.38-2.76 1.38z"/><path d="m27 19a9 9 0 1 0 -9-9 9 9 0 0 0 9 9zm0-16a7 7 0 1 1 -7 7 7 7 0 0 1 7-7z"/><path d="m37 23a1 1 0 0 0 .8-.4l3-4a1 1 0 0 0 -1.6-1.2l-3 4a1 1 0 0 0 .2 1.4 1 1 0 0 0 .6.2z"/><path d="m39.2 26.6a1 1 0 0 0 .8.4 1 1 0 0 0 .6-.2l4-3a1 1 0 1 0 -1.2-1.6l-4 3a1 1 0 0 0 -.2 1.4z"/><path d="m49 28.8a1 1 0 0 0 -1.2-.8l-5 1a1 1 0 0 0 .2 2h.2l5-1a1 1 0 0 0 .8-1.2z"/><path d="m3 29h12a1 1 0 0 0 1-1v-16a1 1 0 0 0 -1-1h-12a1 1 0 0 0 -1 1v16a1 1 0 0 0 1 1zm1-16h10v14h-10z"/><path d="m11 15h-2a1 1 0 0 0 0 2h2a1 1 0 0 0 0-2z"/><path d="m11 19h-4a1 1 0 0 0 0 2h4a1 1 0 0 0 0-2z"/><path d="m11 23h-4a1 1 0 0 0 0 2h4a1 1 0 0 0 0-2z"/><path d="m36.12 28.7a1 1 0 0 0 -1.74 1l4.41 7.63-16 6s0 0-.07 0h-.08l-2.6 1.5-1.73 1a2 2 0 0 1 -1.52.2 2 2 0 0 1 -1.21-.93l-2-3.46a2 2 0 0 1 .75-2.64l3.46-2 2.5 4.33a1 1 0 0 0 .87.5 1 1 0 0 0 .87-1.5l-2.58-4.46 12.55-10.35.41.71a1 1 0 1 0 1.74-1l-1-1.73a1 1 0 0 0 -.69-.48 1 1 0 0 0 -.82.21l-14 11.54-4.26 2.46a4 4 0 0 0 -1.84 4.53l-1 .57a3 3 0 0 0 .72 5.5 3 3 0 0 0 .78.1 3.06 3.06 0 0 0 1.5-.4l1-.57a3.88 3.88 0 0 0 1.75 1.04 3.79 3.79 0 0 0 1.05.14 3.94 3.94 0 0 0 2-.54l.87-.5 2 3.47a3 3 0 0 0 4.09 1.1 3 3 0 0 0 1.1-4.1l-1.82-3.17 15-5.63a1 1 0 0 0 .59-.6 1 1 0 0 0 -.07-.83zm-23.62 17.09a1 1 0 0 1 -.76.1 1 1 0 0 1 -.61-.46 1 1 0 0 1 -.1-.76 1 1 0 0 1 .47-.61l.87-.5 1 1.73zm13.16 2.8a1 1 0 0 1 .1.76 1 1 0 0 1 -.47.6 1 1 0 0 1 -1.36-.36l-2-3.47 1.66-.95h.08z"/></symbol><symbol id="down-arrow" viewBox="0 0 490.688 490.688"><title>down-arrow</title><path style="fill:#FFC107;" d="M472.328,120.529L245.213,347.665L18.098,120.529c-4.237-4.093-10.99-3.975-15.083,0.262 c-3.992,4.134-3.992,10.687,0,14.82l234.667,234.667c4.165,4.164,10.917,4.164,15.083,0l234.667-234.667 c4.237-4.093,4.354-10.845,0.262-15.083c-4.093-4.237-10.845-4.354-15.083-0.262c-0.089,0.086-0.176,0.173-0.262,0.262 L472.328,120.529z"/><path d="M245.213,373.415c-2.831,0.005-5.548-1.115-7.552-3.115L2.994,135.633c-4.093-4.237-3.975-10.99,0.262-15.083 c4.134-3.992,10.687-3.992,14.82,0l227.136,227.115l227.115-227.136c4.093-4.237,10.845-4.354,15.083-0.262 c4.237,4.093,4.354,10.845,0.262,15.083c-0.086,0.089-0.173,0.176-0.262,0.262L252.744,370.279 C250.748,372.281,248.039,373.408,245.213,373.415z"/></symbol><symbol id="ui" viewBox="0 0 479 480"><title>ui</title><path d="m368.5 368h-16v32h-144v16h144v24c0 13.253906-10.746094 24-24 24h-176c-8.574219-.011719-16.496094-4.582031-20.800781-12l-13.855469 8c7.171875 12.355469 20.371094 19.972656 34.65625 20h176c22.082031-.027344 39.972656-17.917969 40-40zm0 0"/><path d="m232.5 432h16v16h-16zm0 0"/><path d="m280.5 216v-16h-24.40625c-3.988281-51.050781-44.542969-91.605469-95.59375-95.59375v-24.40625h-16v24.40625c-5.390625.414062-10.738281 1.25-16 2.496094v-42.902344h128v-16h-128v-8c0-13.253906 10.746094-24 24-24h176c5.84375 0 11.488281 2.132812 15.871094 6l10.585937-12c-7.304687-6.449219-16.714843-10.00390625-26.457031-10h-176c-22.082031.0273438-39.972656 17.917969-40 40v72c-36.023438 15.089844-60.574219 49.0625-63.59375 88h-24.40625v16h24.425781c3.773438 51.148438 44.425781 91.828125 95.574219 95.632812v24.367188h16v-24.367188c51.148438-3.804687 91.800781-44.484374 95.574219-95.632812zm-136 64v15.632812c-11.160156-1.003906-22.019531-4.140624-32-9.234374v-14.398438c0-22.089844 17.910156-40 40-40s40 17.910156 40 40v14.398438c-9.976562 5.101562-20.839844 8.242187-32 9.257812v-15.65625zm-16-88c0-13.253906 10.746094-24 24-24s24 10.746094 24 24-10.746094 24-24 24-24-10.746094-24-24zm82.664062 81.601562c-.863281.796876-1.785156 1.4375-2.664062 2.175782v-3.777344c-.019531-20.898438-11.675781-40.046875-30.230469-49.664062 12.851563-10.824219 17.566407-28.527344 11.804688-44.308594-5.761719-15.785156-20.773438-26.285156-37.574219-26.285156s-31.8125 10.5-37.574219 26.285156c-5.761719 15.78125-1.046875 33.484375 11.804688 44.308594-18.554688 9.617187-30.210938 28.765624-30.230469 49.664062v3.816406c-.886719-.726562-1.808594-1.410156-2.664062-2.175781-16.578126-14.867187-26.910157-35.460937-28.910157-57.640625h15.574219v-16h-15.59375c3.910156-42.234375 37.359375-75.683594 79.59375-79.59375v15.59375h16v-15.59375c42.234375 3.910156 75.683594 37.359375 79.59375 79.59375h-15.59375v16h15.574219c-2 22.179688-12.332031 42.773438-28.910157 57.640625zm0 0"/><path d="m456.5 144c4.417969 0 8-3.582031 8-8v-96c0-4.417969-3.582031-8-8-8h-176c-4.417969 0-8 3.582031-8 8v96c0 4.417969 3.582031 8 8 8zm-168-96h160v80h-160zm0 0"/><path d="m304.5 64h32v16h-32zm0 0"/><path d="m352.5 64h80v16h-80zm0 0"/><path d="m304.5 96h128v16h-128zm0 0"/><path d="m455.085938 160c-6.195313.011719-12.171876 2.285156-16.800782 6.398438l-69.785156 61.523437v-67.921875h-16v80h2.3125l-45.511719 40.160156c-29.609375 1.695313-52.765625 26.179688-52.800781 55.839844v14.113281c.03125 7.9375-4.457031 15.207031-11.574219 18.726563-3.324219 1.65625-5.070312 5.382812-4.21875 8.996094.851563 3.613281 4.078125 6.167968 7.792969 6.164062h56c29.660156-.035156 54.144531-23.191406 55.839844-52.800781l113.808594-128.976563c6.605468-7.492187 8.210937-18.160156 4.097656-27.265625-4.109375-9.105469-13.171875-14.957031-23.160156-14.957031zm-150.585938 208h-36.585938c3.019532-5.476562 4.597657-11.632812 4.585938-17.886719v-14.113281c.027344-20.839844 16.027344-38.179688 36.800781-39.871094l35.070313 35.070313c-1.6875 20.773437-19.03125 36.777343-39.871094 36.800781zm157.648438-176.359375-110.007813 124.679687-27.960937-27.953124 124.679687-110.015626c3.730469-3.273437 9.359375-3.089843 12.871094.417969 3.507812 3.511719 3.691406 9.140625.417969 12.871094zm0 0"/><path d="m8.5 440h176c4.417969 0 8-3.582031 8-8v-64c0-4.417969-3.582031-8-8-8h-56v-40h-16v40h-104c-4.417969 0-8 3.582031-8 8v64c0 4.417969 3.582031 8 8 8zm8-64h160v48h-160zm0 0"/><path d="m32.5 392h40v16h-40zm0 0"/><path d="m88.5 392h72v16h-72zm0 0"/><path d="m8.5 112h80c4.417969 0 8-3.582031 8-8v-64c0-4.417969-3.582031-8-8-8h-80c-4.417969 0-8 3.582031-8 8v64c0 4.417969 3.582031 8 8 8zm8-64h64v48h-64zm0 0"/><path d="m32.5 64h32v16h-32zm0 0"/></symbol><symbol id="web-programming" viewBox="0 -25 424 424"><title>web-programming</title><path d="m167.289062 272.132812c-1.601562 0-3.214843-.550781-4.53125-1.671874l-45.296874-38.570313c-1.5625-1.332031-2.460938-3.277344-2.460938-5.332031 0-2.050782.902344-3.996094 2.460938-5.328125l45.296874-38.570313c2.941407-2.507812 7.359376-2.152344 9.867188.789063 2.503906 2.945312 2.152344 7.363281-.792969 9.867187l-39.035156 33.242188 39.035156 33.242187c2.945313 2.507813 3.296875 6.925781.792969 9.867188-1.386719 1.628906-3.355469 2.464843-5.335938 2.464843zm0 0"/><path d="m256.710938 272.132812c-1.980469 0-3.949219-.835937-5.332032-2.464843-2.507812-2.941407-2.152344-7.359375.789063-9.867188l39.035156-33.242187-39.035156-33.242188c-2.941407-2.503906-3.296875-6.921875-.789063-9.867187 2.503906-2.941407 6.925782-3.296875 9.863282-.789063l45.296874 38.570313c1.5625 1.332031 2.460938 3.277343 2.460938 5.328125 0 2.054687-.898438 4-2.460938 5.332031l-45.296874 38.570313c-1.316407 1.121093-2.929688 1.671874-4.53125 1.671874zm0 0"/><path d="m195.964844 301.0625c-.480469 0-.964844-.050781-1.453125-.152344-3.78125-.796875-6.203125-4.511718-5.40625-8.292968l28.230469-134.035157c.796874-3.78125 4.507812-6.203125 8.292968-5.40625 3.78125.796875 6.203125 4.507813 5.40625 8.292969l-28.230468 134.035156c-.695313 3.296875-3.601563 5.558594-6.839844 5.558594zm0 0"/><path d="m377 374.085938h-330c-25.914062 0-47-21.082032-47-47v-280.085938c0-25.914062 21.085938-47 47-47h330c25.914062 0 47 21.085938 47 47v280.085938c0 25.917968-21.085938 47-47 47zm-330-360.085938c-18.195312 0-33 14.804688-33 33v280.085938c0 18.195312 14.804688 33 33 33h330c18.195312 0 33-14.804688 33-33v-280.085938c0-18.195312-14.804688-33-33-33zm0 0"/><path d="m417 112.089844h-410c-3.867188 0-7-3.132813-7-7 0-3.863282 3.132812-7 7-7h410c3.867188 0 7 3.136718 7 7 0 3.867187-3.132812 7-7 7zm0 0"/><path d="m119.601562 78.59375c-12.210937 0-22.152343-9.941406-22.152343-22.152344 0-12.214844 9.941406-22.152344 22.152343-22.152344 12.214844 0 22.152344 9.9375 22.152344 22.152344 0 12.210938-9.9375 22.152344-22.152344 22.152344zm0-30.304688c-4.492187 0-8.152343 3.65625-8.152343 8.152344s3.660156 8.152344 8.152343 8.152344c4.496094 0 8.152344-3.65625 8.152344-8.152344s-3.65625-8.152344-8.152344-8.152344zm0 0"/><path d="m51.539062 78.378906c-12.214843 0-22.152343-9.9375-22.152343-22.152344 0-12.214843 9.9375-22.152343 22.152343-22.152343 12.214844 0 22.152344 9.9375 22.152344 22.152343 0 12.214844-9.9375 22.152344-22.152344 22.152344zm0-30.304687c-4.492187 0-8.152343 3.660156-8.152343 8.152343 0 4.496094 3.660156 8.152344 8.152343 8.152344 4.496094 0 8.152344-3.65625 8.152344-8.152344 0-4.492187-3.65625-8.152343-8.152344-8.152343zm0 0"/><path d="m187.664062 78.804688c-12.210937 0-22.148437-9.9375-22.148437-22.152344 0-12.210938 9.9375-22.148438 22.148437-22.148438 12.214844 0 22.152344 9.9375 22.152344 22.148438 0 12.214844-9.9375 22.152344-22.152344 22.152344zm0-30.304688c-4.492187 0-8.148437 3.65625-8.148437 8.152344s3.65625 8.152344 8.148437 8.152344c4.496094 0 8.152344-3.65625 8.152344-8.152344s-3.65625-8.152344-8.152344-8.152344zm0 0"/></symbol><symbol id="website" viewBox="0 0 512 512"><title>website</title><g> <g> <path d="M480.452,12.024H31.548C14.152,12.024,0,26.177,0,43.572v352.71c0,17.396,14.152,31.548,31.548,31.548h80.161 c4.142,0,7.5-3.358,7.5-7.5c0-4.142-3.358-7.5-7.5-7.5H31.548c-9.125,0-16.548-7.423-16.548-16.548V107.186h482v289.097 c0,9.125-7.423,16.548-16.548,16.548h-80.161c-4.142,0-7.5,3.358-7.5,7.5c0,4.142,3.358,7.5,7.5,7.5h80.161 c17.396,0,31.548-14.153,31.548-31.548V43.572C512,26.177,497.848,12.024,480.452,12.024z M496.999,92.185H15V43.572 c0-9.125,7.423-16.548,16.548-16.548h448.903c9.125,0,16.548,7.423,16.548,16.548V92.185z"/> </g> </g><g> <g> <path d="M39.645,52.104h-0.08c-4.142,0-7.46,3.358-7.46,7.5c0,4.143,3.398,7.5,7.54,7.5c4.142,0,7.5-3.357,7.5-7.5 C47.145,55.463,43.787,52.104,39.645,52.104z"/> </g> </g><g> <g> <path d="M87.661,52.104h-0.08c-4.142,0-7.46,3.358-7.46,7.5c0,4.143,3.398,7.5,7.54,7.5c4.142,0,7.5-3.357,7.5-7.5 C95.161,55.463,91.803,52.104,87.661,52.104z"/> </g> </g><g> <g> <path d="M63.613,52.104h-0.08c-4.142,0-7.46,3.358-7.46,7.5c0,4.143,3.398,7.5,7.54,7.5c4.142,0,7.5-3.357,7.5-7.5 C71.113,55.463,67.755,52.104,63.613,52.104z"/> </g> </g><g> <g> <path d="M472.436,52.104h-352.71c-4.142,0-7.5,3.358-7.5,7.5c0,4.143,3.358,7.5,7.5,7.5h352.71c4.142,0,7.5-3.357,7.5-7.5 C479.936,55.463,476.578,52.104,472.436,52.104z"/> </g> </g><g> <g> <path d="M351.677,277.464v-41.505c0-52.756-42.92-95.677-95.677-95.677s-95.677,42.921-95.677,95.677v41.505 c-13.786,3.375-24.048,15.829-24.048,30.64v72.146c0,66.017,53.708,119.726,119.726,119.726s119.726-53.708,119.726-119.726 v-72.146C375.726,293.293,365.463,280.84,351.677,277.464z M175.323,235.96c0-44.486,36.192-80.678,80.677-80.678 s80.677,36.191,80.677,80.677v40.597h-17.064V235.96c0-35.077-28.537-63.613-63.613-63.613c-35.076,0-63.613,28.537-63.613,63.613 v40.597h-17.064V235.96z M256,484.976c-57.747,0-104.726-46.98-104.726-104.726v-72.146c0-9.125,7.423-16.548,16.548-16.548 h96.193c4.142,0,7.5-3.358,7.5-7.5c0-4.143-3.358-7.5-7.5-7.5h-56.629V235.96c0-26.806,21.808-48.613,48.613-48.613 s48.613,21.808,48.613,48.613v40.597h-8.531c-4.142,0-7.5,3.357-7.5,7.5c0,4.142,3.358,7.5,7.5,7.5h48.096 c9.125,0,16.548,7.423,16.548,16.548v72.145h0.001C360.726,437.996,313.747,484.976,256,484.976z"/> </g> </g><g> <g> <path d="M256,340.686c-17.396,0-31.548,14.152-31.548,31.548c0,14.812,10.262,27.265,24.048,30.64v25.473 c0,4.142,3.358,7.5,7.5,7.5c4.142,0,7.5-3.358,7.5-7.5v-25.473c13.786-3.375,24.048-15.829,24.048-30.64 C287.548,354.838,273.396,340.686,256,340.686z M256,388.782c-9.125,0-16.548-7.424-16.548-16.548 c0-9.124,7.423-16.548,16.548-16.548s16.548,7.424,16.548,16.548C272.548,381.358,265.125,388.782,256,388.782z"/> </g> </g></symbol><symbol id="rating" viewBox="0 0 512 512"><title>rating</title><g> <polygon style="fill:#E21B1B;" points="29.984,266.88 18.528,302.136 48.512,280.336 78.48,302.136 67.048,266.88 97.016,245.104 59.968,245.104 48.512,209.864 37.056,245.104 0,245.104 "/> <polygon style="fill:#E21B1B;" points="163.712,245.104 152.256,209.864 140.8,245.104 103.744,245.104 133.728,266.88 122.272,302.136 152.256,280.336 182.24,302.136 170.784,266.88 200.776,245.104 "/> <polygon style="fill:#E21B1B;" points="267.456,245.104 256,209.864 244.544,245.104 207.488,245.104 237.472,266.88 226.016,302.136 256,280.336 285.984,302.136 274.528,266.88 304.512,245.104 "/> <polygon style="fill:#E21B1B;" points="371.2,245.104 359.744,209.864 348.288,245.104 311.224,245.104 341.216,266.88 329.76,302.136 359.744,280.336 389.728,302.136 378.272,266.88 408.256,245.104 "/> </g><polygon style="fill:#CCCCCC;" points="474.944,245.104 463.488,209.864 452.032,245.104 414.984,245.104 444.952,266.88 433.496,302.136 463.488,280.336 493.472,302.136 482.016,266.88 512,245.104 "/></symbol><symbol id="rating-1" viewBox="0 0 512 512"><title>rating-1</title><path style="fill:#E4EAF6;" d="M494.345,185.379H17.655C7.904,185.379,0,193.284,0,203.034v105.931 c0,9.75,7.904,17.655,17.655,17.655h476.69c9.751,0,17.655-7.905,17.655-17.655V203.034 C512,193.284,504.096,185.379,494.345,185.379z M116.572,250.997l-15.249,14.863l3.599,20.988c0.473,2.76-2.423,4.864-4.902,3.561 L81.173,280.5l-18.848,9.909c-2.168,1.14-4.657-0.329-4.928-2.562c-0.019-0.16-0.028-0.323-0.023-0.49 c0.001-0.062,0.013-0.125,0.019-0.188c0.009-0.107,0.013-0.213,0.032-0.321l0.408-2.38l3.191-18.607l-15.249-14.863 c-0.337-0.328-0.577-0.698-0.746-1.086c-0.207-0.48-0.299-0.989-0.274-1.49c0.008-0.151,0.025-0.301,0.053-0.449 c0.028-0.148,0.065-0.295,0.111-0.437c0.093-0.287,0.224-0.561,0.388-0.814c0.083-0.127,0.173-0.248,0.273-0.364 c0.497-0.576,1.199-0.995,2.066-1.121L63,243.005l5.719-0.831l5.101-10.335l4.323-8.76c0.465-0.941,1.258-1.529,2.134-1.766 c0.292-0.078,0.594-0.118,0.895-0.118c1.205,0,2.41,0.628,3.029,1.884l9.425,19.095l21.074,3.062 C117.471,245.638,118.577,249.043,116.572,250.997z M203.986,250.997l-15.249,14.863l3.599,20.988 c0.473,2.76-2.423,4.864-4.902,3.561l-18.848-9.909l-18.848,9.909c-2.168,1.14-4.657-0.329-4.928-2.562 c-0.02-0.16-0.028-0.323-0.023-0.49c0.001-0.062,0.013-0.125,0.019-0.188c0.009-0.107,0.013-0.213,0.032-0.321l0.408-2.38 l3.191-18.607l-15.249-14.863c-0.337-0.328-0.577-0.698-0.746-1.086c-0.207-0.48-0.3-0.989-0.274-1.49 c0.008-0.151,0.025-0.301,0.053-0.449c0.083-0.445,0.253-0.872,0.5-1.252c0.164-0.254,0.364-0.487,0.595-0.69 c0.462-0.406,1.05-0.694,1.743-0.796l15.192-2.207l5.881-0.855l6.036-12.23l3.389-6.866c0.465-0.941,1.259-1.529,2.135-1.766 c0.292-0.078,0.594-0.118,0.895-0.118c1.205,0,2.41,0.628,3.029,1.884l9.425,19.095l21.074,3.062 C204.884,245.638,205.99,249.043,203.986,250.997z M291.399,250.997L276.15,265.86l3.599,20.988c0.473,2.76-2.423,4.864-4.902,3.561 L256,280.501l-18.848,9.909c-2.168,1.14-4.657-0.329-4.928-2.562c-0.02-0.16-0.028-0.323-0.023-0.49 c0.001-0.062,0.013-0.125,0.019-0.188c0.009-0.107,0.013-0.213,0.032-0.321l0.408-2.38l3.191-18.607l-15.249-14.863 c-0.337-0.328-0.577-0.698-0.746-1.086c-0.207-0.48-0.299-0.989-0.274-1.49c0.008-0.151,0.025-0.301,0.053-0.449 c0.055-0.297,0.149-0.585,0.278-0.857c0.13-0.273,0.296-0.527,0.494-0.758c0.497-0.576,1.199-0.995,2.066-1.121l15.353-2.231 l5.719-0.831l6.036-12.23l3.389-6.866c0.419-0.849,1.113-1.386,1.886-1.661c0.371-0.131,0.753-0.222,1.143-0.222 c1.205,0,2.41,0.628,3.029,1.884l9.425,19.095l21.074,3.062C292.297,245.638,293.404,249.043,291.399,250.997z M378.812,250.997 l-15.249,14.863l3.599,20.988c0.473,2.76-2.423,4.864-4.901,3.561l-18.848-9.909l-18.848,9.909c-2.168,1.14-4.657-0.329-4.928-2.562 c-0.02-0.16-0.028-0.323-0.023-0.49c0.001-0.062,0.013-0.125,0.019-0.188c0.009-0.107,0.013-0.213,0.032-0.321l0.408-2.38 l3.191-18.607l-15.249-14.863c-0.337-0.328-0.577-0.698-0.746-1.086c-0.207-0.48-0.3-0.989-0.274-1.49 c0.008-0.151,0.025-0.301,0.053-0.449c0.028-0.148,0.065-0.295,0.111-0.437c0.093-0.287,0.224-0.561,0.388-0.814 c0.083-0.127,0.173-0.248,0.273-0.364c0.497-0.576,1.199-0.995,2.066-1.121l15.353-2.231l5.719-0.831l5.101-10.335l4.323-8.76 c0.465-0.941,1.259-1.529,2.135-1.766c0.292-0.078,0.594-0.118,0.895-0.118c1.205,0,2.41,0.628,3.029,1.884l9.425,19.095 l21.073,3.062C379.71,245.638,380.817,249.043,378.812,250.997z M466.225,250.997l-15.249,14.865l3.599,20.989 c0.374,2.183-1.361,3.956-3.329,3.956c-0.52,0-1.055-0.124-1.572-0.395l-18.849-9.909l-18.848,9.909 c-0.518,0.271-1.053,0.395-1.572,0.395c-1.969,0-3.703-1.772-3.329-3.956l3.599-20.989l-15.249-14.865 c-2.005-1.954-0.898-5.358,1.873-5.762l21.074-3.061l9.425-19.096c0.619-1.256,1.824-1.884,3.029-1.884 c1.205,0,2.41,0.628,3.029,1.884l9.425,19.096l21.073,3.061C467.124,245.638,468.23,249.043,466.225,250.997z"/><g> <path style="fill:#FFDC69;" d="M44.92,247.534c0.093-0.287,0.224-0.561,0.388-0.814C45.143,246.974,45.013,247.247,44.92,247.534z"/> <path style="fill:#FFDC69;" d="M80.279,221.312c-0.876,0.235-1.67,0.824-2.134,1.766l-4.323,8.76l4.323-8.76 C78.61,222.136,79.403,221.548,80.279,221.312z"/> <path style="fill:#FFDC69;" d="M47.647,245.236L63,243.005L47.647,245.236c-0.866,0.126-1.569,0.544-2.066,1.121 C46.078,245.78,46.782,245.362,47.647,245.236z"/> <path style="fill:#FFDC69;" d="M44.756,248.422c0.008-0.151,0.025-0.301,0.053-0.449C44.781,248.12,44.764,248.27,44.756,248.422z"/> <path style="fill:#FFDC69;" d="M45.775,250.997c-0.337-0.328-0.577-0.697-0.746-1.086 C45.197,250.298,45.439,250.669,45.775,250.997l15.249,14.863l-3.192,18.609l3.191-18.609L45.775,250.997z"/> <path style="fill:#FFDC69;" d="M57.374,287.358c0.001-0.061,0.013-0.125,0.019-0.188C57.387,287.233,57.375,287.296,57.374,287.358 z"/> <path style="fill:#FFDC69;" d="M114.7,245.236l-21.074-3.062l-9.425-19.095c-0.619-1.256-1.824-1.884-3.029-1.884V280.5 l-18.848,9.909c-2.168,1.14-4.657-0.329-4.928-2.562c0.271,2.233,2.76,3.702,4.928,2.562l18.848-9.909l18.848,9.909 c2.478,1.303,5.375-0.801,4.902-3.561l-3.599-20.988l15.249-14.863C118.577,249.043,117.471,245.638,114.7,245.236z"/> </g><path style="fill:#FFC864;" d="M62.325,290.41l18.848-9.909v-59.305c-0.301,0-0.602,0.04-0.895,0.118 c-0.876,0.235-1.67,0.824-2.134,1.766l-4.323,8.76l-5.101,10.335L63,243.006l-15.353,2.231c-0.866,0.126-1.569,0.544-2.066,1.121 c-0.099,0.115-0.191,0.237-0.273,0.364c-0.164,0.254-0.296,0.527-0.388,0.814c-0.046,0.143-0.084,0.289-0.111,0.437 c-0.028,0.148-0.045,0.299-0.053,0.449c-0.025,0.501,0.066,1.01,0.274,1.49c0.168,0.388,0.409,0.758,0.746,1.086l15.249,14.863 l-3.192,18.607l-0.408,2.38c-0.019,0.109-0.023,0.215-0.032,0.321c-0.006,0.062-0.017,0.126-0.019,0.188 c-0.004,0.167,0.004,0.33,0.023,0.49C57.668,290.08,60.157,291.55,62.325,290.41z"/><g> <path style="fill:#FFDC69;" d="M132.169,248.422c0.008-0.151,0.025-0.301,0.053-0.449 C132.195,248.12,132.177,248.27,132.169,248.422z"/> <path style="fill:#FFDC69;" d="M167.692,221.312c-0.876,0.235-1.67,0.824-2.135,1.766l-3.389,6.866l3.389-6.866 C166.023,222.136,166.816,221.548,167.692,221.312z"/> <path style="fill:#FFDC69;" d="M150.252,243.028l-15.192,2.207c-0.693,0.1-1.281,0.39-1.743,0.796 c0.462-0.406,1.05-0.694,1.743-0.794L150.252,243.028z"/> <path style="fill:#FFDC69;" d="M144.787,287.358c0.001-0.061,0.013-0.125,0.019-0.188 C144.801,287.233,144.789,287.296,144.787,287.358z"/> <path style="fill:#FFDC69;" d="M133.188,250.997c-0.337-0.328-0.578-0.697-0.746-1.086 C132.61,250.298,132.852,250.669,133.188,250.997l15.249,14.863l-3.191,18.607l3.192-18.609L133.188,250.997z"/> <path style="fill:#FFDC69;" d="M202.113,245.236l-21.074-3.062l-9.425-19.095c-0.62-1.256-1.824-1.884-3.029-1.884V280.5 l-18.848,9.909c-2.168,1.14-4.657-0.329-4.928-2.562c0.271,2.233,2.76,3.702,4.928,2.562l18.848-9.909l18.848,9.909 c2.478,1.303,5.375-0.801,4.902-3.561l-3.599-20.988l15.249-14.863C205.99,249.043,204.884,245.638,202.113,245.236z"/> </g><path style="fill:#FFC864;" d="M149.738,290.41l18.848-9.909v-59.305c-0.301,0-0.602,0.04-0.895,0.118 c-0.876,0.235-1.67,0.824-2.135,1.766l-3.389,6.866l-6.036,12.23l-5.881,0.855l-15.192,2.208c-0.693,0.1-1.281,0.388-1.743,0.794 c-0.231,0.203-0.43,0.436-0.595,0.69c-0.247,0.38-0.417,0.808-0.5,1.252c-0.028,0.148-0.045,0.299-0.053,0.449 c-0.026,0.501,0.066,1.01,0.274,1.49c0.168,0.388,0.409,0.758,0.746,1.086l15.249,14.863l-3.192,18.609l-0.408,2.38 c-0.019,0.109-0.023,0.215-0.032,0.321c-0.004,0.062-0.017,0.126-0.019,0.188c-0.004,0.167,0.004,0.33,0.023,0.49 C145.081,290.08,147.57,291.55,149.738,290.41z"/><g> <path style="fill:#FFDC69;" d="M289.526,245.236l-21.074-3.062l-9.425-19.095c-0.62-1.256-1.824-1.884-3.029-1.884V280.5 l-18.848,9.909c-2.168,1.14-4.657-0.329-4.928-2.562c0.271,2.233,2.76,3.702,4.928,2.562l18.848-9.909l18.848,9.909 c2.478,1.303,5.375-0.801,4.902-3.561l-3.599-20.988l15.249-14.863C293.404,249.043,292.297,245.638,289.526,245.236z"/> <path style="fill:#FFDC69;" d="M219.914,247.115c0.129-0.273,0.296-0.527,0.494-0.758 C220.21,246.586,220.044,246.842,219.914,247.115z"/> <path style="fill:#FFDC69;" d="M254.857,221.417c-0.772,0.275-1.468,0.812-1.886,1.661l-3.389,6.866l3.389-6.866 C253.39,222.23,254.084,221.692,254.857,221.417z"/> <path style="fill:#FFDC69;" d="M222.474,245.236l15.353-2.231L222.474,245.236c-0.866,0.126-1.569,0.544-2.066,1.121 C220.905,245.78,221.608,245.362,222.474,245.236z"/> <path style="fill:#FFDC69;" d="M220.601,250.997c-0.337-0.328-0.578-0.697-0.746-1.086 C220.024,250.298,220.265,250.669,220.601,250.997l15.249,14.863l-3.191,18.607l3.192-18.609L220.601,250.997z"/> <path style="fill:#FFDC69;" d="M219.583,248.422c0.008-0.151,0.025-0.301,0.053-0.449 C219.608,248.12,219.591,248.27,219.583,248.422z"/> <path style="fill:#FFDC69;" d="M232.201,287.358c0.001-0.061,0.013-0.125,0.019-0.188 C232.214,287.233,232.202,287.296,232.201,287.358z"/> </g><path style="fill:#FFC864;" d="M237.152,290.41L256,280.501v-59.305c-0.391,0-0.772,0.09-1.143,0.222 c-0.772,0.275-1.468,0.812-1.886,1.661l-3.389,6.866l-6.036,12.23l-5.719,0.831l-15.353,2.231c-0.866,0.126-1.569,0.544-2.066,1.121 c-0.199,0.231-0.364,0.487-0.494,0.758s-0.224,0.561-0.278,0.857c-0.028,0.148-0.045,0.299-0.053,0.449 c-0.026,0.501,0.066,1.01,0.274,1.49c0.168,0.388,0.409,0.758,0.746,1.086l15.249,14.863l-3.192,18.609l-0.408,2.38 c-0.019,0.109-0.023,0.215-0.032,0.321c-0.004,0.062-0.017,0.126-0.019,0.188c-0.004,0.167,0.004,0.33,0.023,0.49 C232.494,290.08,234.984,291.55,237.152,290.41z"/><g> <path style="fill:#FFDC69;" d="M319.614,287.358c0.001-0.061,0.013-0.125,0.019-0.188 C319.627,287.233,319.615,287.296,319.614,287.358z"/> <path style="fill:#FFDC69;" d="M308.015,250.997c-0.337-0.328-0.578-0.697-0.746-1.086 C307.437,250.298,307.679,250.669,308.015,250.997l15.249,14.863l-3.191,18.607l3.191-18.609L308.015,250.997z"/> <path style="fill:#FFDC69;" d="M309.887,245.236l15.353-2.231L309.887,245.236c-0.866,0.126-1.569,0.544-2.066,1.121 C308.318,245.78,309.021,245.362,309.887,245.236z"/> <path style="fill:#FFDC69;" d="M307.16,247.534c0.093-0.287,0.224-0.561,0.388-0.814 C307.383,246.974,307.253,247.247,307.16,247.534z"/> <path style="fill:#FFDC69;" d="M306.996,248.422c0.008-0.151,0.025-0.301,0.053-0.449 C307.021,248.12,307.004,248.27,306.996,248.422z"/> <path style="fill:#FFDC69;" d="M342.519,221.312c-0.876,0.235-1.67,0.824-2.135,1.766l-4.323,8.76l4.323-8.76 C340.85,222.136,341.643,221.548,342.519,221.312z"/> <path style="fill:#FFDC69;" d="M376.94,245.236l-21.073-3.062l-9.425-19.095c-0.619-1.256-1.824-1.884-3.029-1.884V280.5 l-18.848,9.909c-2.168,1.14-4.657-0.329-4.928-2.562c0.271,2.233,2.76,3.702,4.928,2.562l18.848-9.909l18.848,9.909 c2.478,1.303,5.374-0.801,4.901-3.561l-3.599-20.988l15.249-14.863C380.817,249.043,379.71,245.638,376.94,245.236z"/> </g><path style="fill:#FFC864;" d="M324.565,290.41l18.848-9.909v-59.305c-0.301,0-0.602,0.04-0.895,0.118 c-0.876,0.235-1.669,0.824-2.135,1.766l-4.323,8.76l-5.101,10.335l-5.719,0.831l-15.353,2.231c-0.866,0.126-1.569,0.544-2.066,1.121 c-0.099,0.115-0.19,0.237-0.273,0.364c-0.164,0.254-0.296,0.527-0.388,0.814c-0.046,0.143-0.084,0.289-0.111,0.437 c-0.028,0.148-0.045,0.299-0.053,0.449c-0.026,0.501,0.066,1.01,0.274,1.49c0.168,0.388,0.409,0.758,0.746,1.086l15.249,14.863 l-3.191,18.609l-0.408,2.38c-0.019,0.109-0.023,0.215-0.032,0.321c-0.004,0.062-0.017,0.126-0.019,0.188 c-0.004,0.167,0.003,0.33,0.023,0.49C319.908,290.08,322.397,291.55,324.565,290.41z"/><polygon style="fill:#FFFFFF;" points="437.418,250.242 435.364,246.08 430.827,236.887 426.29,246.08 424.235,250.242 419.642,250.91 409.497,252.384 416.839,259.54 420.162,262.78 419.378,267.353 417.644,277.457 426.719,272.686 430.827,270.527 434.934,272.686 444.009,277.457 442.275,267.353 441.491,262.78 444.814,259.54 452.156,252.384 442.01,250.91 "/><path style="fill:#FFC864;" d="M464.353,245.235l-21.073-3.061l-9.425-19.096c-0.619-1.256-1.824-1.884-3.029-1.884 c-1.205,0-2.41,0.628-3.029,1.884l-9.425,19.096l-21.074,3.061c-2.771,0.403-3.876,3.808-1.873,5.762l15.249,14.865l-3.599,20.989 c-0.374,2.184,1.361,3.956,3.329,3.956c0.52,0,1.055-0.124,1.572-0.395l18.848-9.909l18.849,9.909 c0.517,0.271,1.053,0.395,1.572,0.395c1.969,0,3.703-1.773,3.329-3.956l-3.599-20.989l15.249-14.865 C468.23,249.043,467.124,245.638,464.353,245.235z M444.814,259.54l-3.324,3.24l0.785,4.575l1.734,10.103l-9.075-4.77l-4.108-2.159 l-4.108,2.159l-9.074,4.77l1.734-10.103l0.785-4.575l-3.324-3.24l-7.341-7.156l10.145-1.474l4.593-0.666l2.053-4.162l4.537-9.193 l4.537,9.193l2.054,4.162l4.593,0.666l10.145,1.474L444.814,259.54z"/></symbol><symbol id="facebook" viewBox="0 0 24 24"><title>facebook</title><path d="m15.997 3.985h2.191v-3.816c-.378-.052-1.678-.169-3.192-.169-3.159 0-5.323 1.987-5.323 5.639v3.361h-3.486v4.266h3.486v10.734h4.274v-10.733h3.345l.531-4.266h-3.877v-2.939c.001-1.233.333-2.077 2.051-2.077z"/></symbol><symbol id="twitter" viewBox="0 0 512 512"><title>twitter</title><path d="M512,97.248c-19.04,8.352-39.328,13.888-60.48,16.576c21.76-12.992,38.368-33.408,46.176-58.016 c-20.288,12.096-42.688,20.64-66.56,25.408C411.872,60.704,384.416,48,354.464,48c-58.112,0-104.896,47.168-104.896,104.992 c0,8.32,0.704,16.32,2.432,23.936c-87.264-4.256-164.48-46.08-216.352-109.792c-9.056,15.712-14.368,33.696-14.368,53.056 c0,36.352,18.72,68.576,46.624,87.232c-16.864-0.32-33.408-5.216-47.424-12.928c0,0.32,0,0.736,0,1.152 c0,51.008,36.384,93.376,84.096,103.136c-8.544,2.336-17.856,3.456-27.52,3.456c-6.72,0-13.504-0.384-19.872-1.792 c13.6,41.568,52.192,72.128,98.08,73.12c-35.712,27.936-81.056,44.768-130.144,44.768c-8.608,0-16.864-0.384-25.12-1.44 C46.496,446.88,101.6,464,161.024,464c193.152,0,298.752-160,298.752-298.688c0-4.64-0.16-9.12-0.384-13.568 C480.224,136.96,497.728,118.496,512,97.248z"/></symbol><symbol id="star" viewBox="0 0 53.867 53.867"><title>star</title><polygon style="fill:#EFCE4A;" points="26.934,1.318 35.256,18.182 53.867,20.887 40.4,34.013 43.579,52.549 26.934,43.798 10.288,52.549 13.467,34.013 0,20.887 18.611,18.182 "/></symbol><symbol id="star-1" viewBox="0 0 512 512"><title>star-1</title><polygon points="512,197.816 325.961,185.585 255.898,9.569 185.835,185.585 0,197.816 142.534,318.842 95.762,502.431 255.898,401.21 416.035,502.431 369.263,318.842 "/></symbol><symbol id="star-2" viewBox="0 0 55.867 55.867"><title>star-2</title><path d="M11.287,54.548c-0.207,0-0.414-0.064-0.588-0.191c-0.308-0.224-0.462-0.603-0.397-0.978l3.091-18.018L0.302,22.602 c-0.272-0.266-0.37-0.663-0.253-1.024c0.118-0.362,0.431-0.626,0.808-0.681l18.09-2.629l8.091-16.393 c0.168-0.342,0.516-0.558,0.896-0.558l0,0c0.381,0,0.729,0.216,0.896,0.558l8.09,16.393l18.091,2.629 c0.377,0.055,0.689,0.318,0.808,0.681c0.117,0.361,0.02,0.759-0.253,1.024L42.475,35.363l3.09,18.017 c0.064,0.375-0.09,0.754-0.397,0.978c-0.308,0.226-0.717,0.255-1.054,0.076l-16.18-8.506l-16.182,8.506 C11.606,54.51,11.446,54.548,11.287,54.548z M3.149,22.584l12.016,11.713c0.235,0.229,0.343,0.561,0.287,0.885L12.615,51.72 l14.854-7.808c0.291-0.154,0.638-0.154,0.931,0l14.852,7.808l-2.836-16.538c-0.056-0.324,0.052-0.655,0.287-0.885l12.016-11.713 l-16.605-2.413c-0.326-0.047-0.607-0.252-0.753-0.547L27.934,4.578l-7.427,15.047c-0.146,0.295-0.427,0.5-0.753,0.547L3.149,22.584z "/></symbol></svg>